<svg width="835" height="54" viewBox="0 0 835 54" fill="none" xmlns="http://www.w3.org/2000/svg">
<path d="M2.64 35.13H52.36V40.355H2.64V35.13ZM13.2 14.615H46.53V18.905H13.2V14.615ZM13.2 21.215H46.64V25.56H13.2V21.215ZM11.88 7.245H49.28V12.36H11.88V7.245ZM25.63 10.49H31.955V29.795H25.63V10.49ZM24.09 31.61H30.635V52.895H24.09V31.61ZM23.54 37.275L28.49 39.75C27.0967 41.1067 25.4833 42.445 23.65 43.765C21.8533 45.0483 19.91 46.2583 17.82 47.395C15.73 48.495 13.6033 49.485 11.44 50.365C9.27667 51.245 7.15 51.9783 5.06 52.565C4.54667 51.7583 3.88667 50.805 3.08 49.705C2.27333 48.6417 1.52167 47.78 0.825 47.12C2.915 46.68 5.04167 46.13 7.205 45.47C9.36833 44.7733 11.4583 44.0033 13.475 43.16C15.5283 42.28 17.4167 41.345 19.14 40.355C20.8633 39.365 22.33 38.3383 23.54 37.275ZM31.405 37.11C32.615 38.1733 34.045 39.2 35.695 40.19C37.3817 41.18 39.215 42.115 41.195 42.995C43.2117 43.8383 45.2833 44.6083 47.41 45.305C49.5367 45.965 51.6267 46.5333 53.68 47.01C53.2033 47.4133 52.7083 47.9267 52.195 48.55C51.6817 49.21 51.1867 49.87 50.71 50.53C50.2333 51.19 49.8483 51.7767 49.555 52.29C47.465 51.7033 45.3383 50.97 43.175 50.09C41.0483 49.21 38.9583 48.22 36.905 47.12C34.8883 46.02 32.9817 44.8467 31.185 43.6C29.3883 42.3167 27.775 40.9967 26.345 39.64L31.405 37.11ZM28.325 1.25L35.75 2.185C34.9067 3.79833 34.0083 5.35666 33.055 6.86C32.1383 8.36333 31.295 9.62833 30.525 10.655L24.695 9.555C25.355 8.345 26.0333 6.97 26.73 5.43C27.4267 3.89 27.9583 2.49666 28.325 1.25ZM14.245 1.14L21.065 2.515C19.8183 4.64166 18.4433 6.75 16.94 8.84C15.4367 10.93 13.7683 12.9833 11.935 15C10.1017 16.98 8.04833 18.8683 5.775 20.665C5.445 20.1883 5.005 19.675 4.455 19.125C3.905 18.5383 3.31833 17.9883 2.695 17.475C2.10833 16.925 1.57667 16.5033 1.1 16.21C3.15333 14.7433 5.005 13.1667 6.655 11.48C8.34167 9.75667 9.82667 8.015 11.11 6.255C12.3933 4.45833 13.4383 2.75333 14.245 1.14ZM8.965 10.6H15.18V27.925H50.875V32.875H8.965V10.6ZM81.015 11.59L88.055 13.02C85.965 15.9533 83.4533 18.6667 80.52 21.16C77.5867 23.6167 73.9933 25.8167 69.74 27.76C69.4833 27.2467 69.0983 26.6783 68.585 26.055C68.0717 25.4317 67.54 24.8267 66.99 24.24C66.44 23.6533 65.9083 23.195 65.395 22.865C69.2817 21.3983 72.5083 19.675 75.075 17.695C77.6783 15.6783 79.6583 13.6433 81.015 11.59ZM82.5 15.33H98.945V20.225H78.045L82.5 15.33ZM96.965 15.33H98.23L99.385 15L103.84 17.695C102.007 20.7383 99.715 23.4517 96.965 25.835C94.215 28.1817 91.1167 30.235 87.67 31.995C84.26 33.755 80.63 35.2583 76.78 36.505C72.9667 37.715 69.08 38.705 65.12 39.475C64.8267 38.6317 64.3867 37.6417 63.8 36.505C63.2133 35.3317 62.6267 34.3783 62.04 33.645C65.7067 33.095 69.3183 32.3067 72.875 31.28C76.4683 30.2533 79.8233 29.025 82.94 27.595C86.0933 26.1283 88.88 24.4417 91.3 22.535C93.72 20.6283 95.6083 18.5383 96.965 16.265V15.33ZM79.915 19.015C82.0417 21.3983 84.81 23.47 88.22 25.23C91.6667 26.99 95.5717 28.4567 99.935 29.63C104.335 30.7667 108.992 31.5733 113.905 32.05C113.428 32.5633 112.915 33.205 112.365 33.975C111.852 34.7083 111.357 35.4783 110.88 36.285C110.403 37.055 110.018 37.7517 109.725 38.375C104.665 37.6783 99.9167 36.615 95.48 35.185C91.08 33.7183 87.0833 31.8667 83.49 29.63C79.8967 27.3567 76.7983 24.6617 74.195 21.545L79.915 19.015ZM72.435 35.68H104.115V52.84H97.295V41.125H78.925V52.95H72.435V35.68ZM75.68 45.8H100.595V51.245H75.68V45.8ZM84.425 1.305H91.245V9.115H84.425V1.305ZM64.295 5.76H111.705V17.97H104.94V11.755H70.785V17.97H64.295V5.76ZM153.505 10.325C153.138 13.1117 152.662 16.0817 152.075 19.235C151.488 22.3883 150.7 25.5783 149.71 28.805C148.647 32.5083 147.4 35.6983 145.97 38.375C144.54 41.0517 142.963 43.1233 141.24 44.59C139.553 46.02 137.702 46.735 135.685 46.735C133.668 46.735 131.798 46.0567 130.075 44.7C128.388 43.3067 127.032 41.4 126.005 38.98C125.015 36.56 124.52 33.81 124.52 30.73C124.52 27.54 125.162 24.5333 126.445 21.71C127.728 18.8867 129.507 16.3933 131.78 14.23C134.09 12.03 136.767 10.3067 139.81 9.06C142.89 7.81333 146.208 7.19 149.765 7.19C153.175 7.19 156.237 7.74 158.95 8.84C161.7 9.94 164.047 11.4617 165.99 13.405C167.933 15.3483 169.418 17.6217 170.445 20.225C171.472 22.8283 171.985 25.6333 171.985 28.64C171.985 32.49 171.197 35.9367 169.62 38.98C168.043 42.0233 165.697 44.535 162.58 46.515C159.5 48.495 155.65 49.8517 151.03 50.585L146.905 44.04C147.968 43.93 148.903 43.8017 149.71 43.655C150.517 43.5083 151.287 43.3433 152.02 43.16C153.78 42.72 155.412 42.0967 156.915 41.29C158.455 40.4467 159.793 39.42 160.93 38.21C162.067 36.9633 162.947 35.515 163.57 33.865C164.23 32.215 164.56 30.4 164.56 28.42C164.56 26.2567 164.23 24.2767 163.57 22.48C162.91 20.6833 161.938 19.125 160.655 17.805C159.372 16.4483 157.813 15.4217 155.98 14.725C154.147 13.9917 152.038 13.625 149.655 13.625C146.722 13.625 144.137 14.1567 141.9 15.22C139.663 16.2467 137.775 17.585 136.235 19.235C134.695 20.885 133.522 22.6633 132.715 24.57C131.945 26.4767 131.56 28.2917 131.56 30.015C131.56 31.8483 131.78 33.3883 132.22 34.635C132.66 35.845 133.192 36.7617 133.815 37.385C134.475 37.9717 135.172 38.265 135.905 38.265C136.675 38.265 137.427 37.88 138.16 37.11C138.93 36.3033 139.682 35.0933 140.415 33.48C141.148 31.8667 141.882 29.8317 142.615 27.375C143.458 24.735 144.173 21.9117 144.76 18.905C145.347 15.8983 145.768 12.965 146.025 10.105L153.505 10.325ZM194.37 25.175H222.86V21.765H188.705V16.375H229.405V30.565H194.37V25.175ZM190.685 25.175H197.34C196.973 26.8983 196.57 28.695 196.13 30.565C195.727 32.435 195.305 34.2317 194.865 35.955C194.462 37.6783 194.058 39.2183 193.655 40.575L187.055 39.805C187.495 38.485 187.935 37 188.375 35.35C188.815 33.6633 189.237 31.94 189.64 30.18C190.08 28.42 190.428 26.7517 190.685 25.175ZM193.05 33.755H227.645V39.255H191.4L193.05 33.755ZM225.94 33.755H232.595C232.595 33.755 232.577 34.0483 232.54 34.635C232.54 35.2217 232.503 35.7167 232.43 36.12C232.137 39.7867 231.807 42.5917 231.44 44.535C231.073 46.4783 230.523 47.8167 229.79 48.55C229.203 49.21 228.562 49.6683 227.865 49.925C227.205 50.2183 226.435 50.4017 225.555 50.475C224.785 50.5483 223.777 50.6033 222.53 50.64C221.283 50.6767 219.963 50.6583 218.57 50.585C218.533 49.6317 218.332 48.605 217.965 47.505C217.635 46.3683 217.213 45.3967 216.7 44.59C217.873 44.7 218.973 44.7733 220 44.81C221.063 44.8467 221.852 44.8467 222.365 44.81C222.805 44.81 223.172 44.7917 223.465 44.755C223.758 44.6817 224.015 44.535 224.235 44.315C224.638 43.9483 224.968 43.0317 225.225 41.565C225.482 40.0617 225.72 37.7333 225.94 34.58V33.755ZM205.645 17.64H212.08V52.95H205.645V17.64ZM204.325 35.735L209.44 37.99C208.193 39.53 206.763 41.015 205.15 42.445C203.537 43.875 201.795 45.2133 199.925 46.46C198.055 47.7067 196.13 48.825 194.15 49.815C192.17 50.805 190.172 51.6483 188.155 52.345C187.862 51.8317 187.477 51.245 187 50.585C186.523 49.9617 186.01 49.3383 185.46 48.715C184.947 48.0917 184.47 47.5783 184.03 47.175C185.973 46.625 187.917 45.9467 189.86 45.14C191.803 44.3333 193.673 43.435 195.47 42.445C197.267 41.455 198.917 40.3917 200.42 39.255C201.96 38.1183 203.262 36.945 204.325 35.735ZM190.85 5.54H208.175V10.6H190.85V5.54ZM212.74 5.54H234.08V10.6H212.74V5.54ZM191.125 0.809998L197.285 2.515C196.552 4.31166 195.653 6.10833 194.59 7.905C193.563 9.665 192.463 11.3333 191.29 12.91C190.153 14.45 188.998 15.8067 187.825 16.98C187.458 16.6133 186.945 16.21 186.285 15.77C185.625 15.33 184.947 14.9083 184.25 14.505C183.59 14.065 183.003 13.6983 182.49 13.405C184.287 11.9017 185.937 10.0317 187.44 7.795C188.98 5.52166 190.208 3.19333 191.125 0.809998ZM213.565 0.809998L219.78 2.405C218.753 5.155 217.397 7.77667 215.71 10.27C214.023 12.7633 212.282 14.8533 210.485 16.54C210.118 16.1733 209.587 15.7517 208.89 15.275C208.23 14.7983 207.552 14.34 206.855 13.9C206.195 13.46 205.608 13.1117 205.095 12.855C206.892 11.425 208.523 9.64666 209.99 7.52C211.493 5.39333 212.685 3.15666 213.565 0.809998ZM192.94 9.5L198.165 7.3C198.898 8.36333 199.632 9.57333 200.365 10.93C201.098 12.25 201.63 13.3867 201.96 14.34L196.35 16.87C196.093 15.88 195.617 14.6883 194.92 13.295C194.26 11.9017 193.6 10.6367 192.94 9.5ZM216.81 9.5L222.2 7.52C223.08 8.54667 223.978 9.70167 224.895 10.985C225.812 12.2683 226.49 13.405 226.93 14.395L221.21 16.595C220.843 15.605 220.238 14.45 219.395 13.13C218.552 11.81 217.69 10.6 216.81 9.5ZM244.09 22.975H295.02V30.18H244.09V22.975ZM326.865 23.085H333.465V33.975C333.465 35.4783 333.282 36.67 332.915 37.55C332.548 38.43 331.797 39.09 330.66 39.53C329.523 39.97 328.203 40.245 326.7 40.355C325.233 40.4283 323.51 40.465 321.53 40.465C321.42 39.5483 321.163 38.54 320.76 37.44C320.357 36.3033 319.953 35.3317 319.55 34.525C320.393 34.5617 321.237 34.5983 322.08 34.635C322.96 34.635 323.73 34.635 324.39 34.635C325.05 34.5983 325.527 34.58 325.82 34.58C326.223 34.58 326.498 34.525 326.645 34.415C326.792 34.305 326.865 34.1033 326.865 33.81V23.085ZM315.37 24.405L322.245 26.495C321.292 28.1083 320.173 29.7217 318.89 31.335C317.643 32.9483 316.342 34.47 314.985 35.9C313.665 37.2933 312.345 38.5217 311.025 39.585C310.585 39.145 309.998 38.6683 309.265 38.155C308.532 37.605 307.78 37.0733 307.01 36.56C306.277 36.0467 305.635 35.6433 305.085 35.35C307.102 34.03 309.027 32.3983 310.86 30.455C312.693 28.475 314.197 26.4583 315.37 24.405ZM339.02 27.54L344.355 24.185C345.675 25.285 347.032 26.5317 348.425 27.925C349.855 29.2817 351.175 30.6567 352.385 32.05C353.595 33.4433 354.548 34.7267 355.245 35.9L349.47 39.695C348.81 38.5217 347.912 37.22 346.775 35.79C345.638 34.36 344.373 32.93 342.98 31.5C341.623 30.0333 340.303 28.7133 339.02 27.54ZM339.735 32.16L346.555 34.14C345.235 37.2933 343.548 39.9883 341.495 42.225C339.442 44.425 337.003 46.2583 334.18 47.725C331.393 49.1917 328.203 50.365 324.61 51.245C321.017 52.125 317.02 52.84 312.62 53.39C312.363 52.3267 311.923 51.19 311.3 49.98C310.713 48.8067 310.108 47.7983 309.485 46.955C314.765 46.5883 319.385 45.91 323.345 44.92C327.342 43.8933 330.697 42.3717 333.41 40.355C336.123 38.3383 338.232 35.6067 339.735 32.16ZM305.25 17.53H354.86V23.745H305.25V17.53ZM330.825 6.475H349.47V12.47H330.825V6.475ZM326.81 1.25H333.575V20.94H326.81V1.25ZM312.675 5.045H319.385V19.895H312.675V5.045ZM384.505 14.23C386.082 14.3767 387.658 14.505 389.235 14.615C390.848 14.6883 392.48 14.725 394.13 14.725C397.503 14.725 400.858 14.5783 404.195 14.285C407.532 13.9917 410.612 13.5333 413.435 12.91V19.785C410.575 20.1883 407.477 20.5183 404.14 20.775C400.803 20.995 397.467 21.105 394.13 21.105C392.517 21.105 390.903 21.0867 389.29 21.05C387.713 20.9767 386.118 20.885 384.505 20.775V14.23ZM405.405 4.935C405.332 5.44833 405.258 6.01666 405.185 6.64C405.148 7.26333 405.112 7.88667 405.075 8.51C405.038 9.09666 405.002 9.885 404.965 10.875C404.928 11.865 404.91 12.9833 404.91 14.23C404.91 15.44 404.91 16.7233 404.91 18.08C404.91 20.5733 404.947 22.92 405.02 25.12C405.093 27.2833 405.185 29.3 405.295 31.17C405.405 33.0033 405.497 34.69 405.57 36.23C405.68 37.77 405.735 39.2 405.735 40.52C405.735 41.95 405.533 43.27 405.13 44.48C404.763 45.69 404.158 46.7533 403.315 47.67C402.472 48.5867 401.353 49.2833 399.96 49.76C398.603 50.2733 396.935 50.53 394.955 50.53C391.142 50.53 388.135 49.76 385.935 48.22C383.735 46.68 382.635 44.4617 382.635 41.565C382.635 39.695 383.13 38.0633 384.12 36.67C385.11 35.24 386.522 34.14 388.355 33.37C390.188 32.5633 392.352 32.16 394.845 32.16C397.448 32.16 399.813 32.435 401.94 32.985C404.067 33.535 406.01 34.2683 407.77 35.185C409.53 36.1017 411.088 37.11 412.445 38.21C413.838 39.2733 415.085 40.3 416.185 41.29L412.39 47.065C410.3 45.085 408.265 43.38 406.285 41.95C404.305 40.52 402.325 39.42 400.345 38.65C398.402 37.88 396.385 37.495 394.295 37.495C392.755 37.495 391.49 37.7883 390.5 38.375C389.547 38.9617 389.07 39.7867 389.07 40.85C389.07 41.95 389.565 42.7567 390.555 43.27C391.545 43.7833 392.755 44.04 394.185 44.04C395.322 44.04 396.22 43.8567 396.88 43.49C397.54 43.0867 397.998 42.5183 398.255 41.785C398.548 41.015 398.695 40.0983 398.695 39.035C398.695 38.0817 398.658 36.835 398.585 35.295C398.512 33.755 398.42 32.0317 398.31 30.125C398.237 28.2183 398.163 26.2383 398.09 24.185C398.017 22.095 397.98 20.06 397.98 18.08C397.98 15.99 397.962 14.1017 397.925 12.415C397.925 10.6917 397.925 9.40833 397.925 8.565C397.925 8.16166 397.888 7.59333 397.815 6.86C397.742 6.12667 397.65 5.485 397.54 4.935H405.405ZM378.565 5.54C378.455 5.90667 378.29 6.42 378.07 7.08C377.887 7.74 377.722 8.38167 377.575 9.005C377.465 9.62833 377.373 10.105 377.3 10.435C377.117 11.205 376.915 12.25 376.695 13.57C376.475 14.8533 376.237 16.32 375.98 17.97C375.76 19.5833 375.54 21.2517 375.32 22.975C375.1 24.6617 374.935 26.275 374.825 27.815C374.715 29.3183 374.66 30.62 374.66 31.72C374.66 32.27 374.66 32.875 374.66 33.535C374.697 34.1583 374.77 34.745 374.88 35.295C375.137 34.635 375.393 33.9933 375.65 33.37C375.943 32.7467 376.237 32.1233 376.53 31.5C376.823 30.8767 377.098 30.2533 377.355 29.63L380.71 32.38C380.197 33.8833 379.665 35.46 379.115 37.11C378.602 38.76 378.125 40.3183 377.685 41.785C377.282 43.2517 376.97 44.48 376.75 45.47C376.677 45.8367 376.603 46.2767 376.53 46.79C376.493 47.3033 376.475 47.725 376.475 48.055C376.475 48.3483 376.475 48.6967 376.475 49.1C376.512 49.54 376.548 49.9433 376.585 50.31L370.37 50.805C369.783 48.8617 369.27 46.3867 368.83 43.38C368.39 40.3367 368.17 36.945 368.17 33.205C368.17 31.1517 368.262 29.0067 368.445 26.77C368.628 24.4967 368.83 22.315 369.05 20.225C369.307 18.135 369.563 16.2283 369.82 14.505C370.077 12.745 370.278 11.3333 370.425 10.27C370.535 9.5 370.645 8.63833 370.755 7.685C370.865 6.695 370.938 5.76 370.975 4.88L378.565 5.54ZM439.175 13.515V15.77H462.605V13.515H439.175ZM439.175 7.3V9.5H462.605V7.3H439.175ZM432.85 3.01H469.205V20.06H432.85V3.01ZM426.36 22.04H475.53V27.265H426.36V22.04ZM451.605 29.3H469.59V34.36H451.605V29.3ZM434.83 29.465H447.315V34.03H434.83V29.465ZM434.83 36.395H447.315V40.96H434.83V36.395ZM458.315 33.865C459.855 37.2383 462.202 40.135 465.355 42.555C468.545 44.975 472.34 46.6983 476.74 47.725C476.337 48.1283 475.878 48.6233 475.365 49.21C474.852 49.8333 474.375 50.475 473.935 51.135C473.495 51.795 473.128 52.3817 472.835 52.895C468.105 51.465 464.09 49.265 460.79 46.295C457.527 43.325 454.942 39.6767 453.035 35.35L458.315 33.865ZM467.61 29.3H468.82L469.92 29.135L473.99 30.675C472.89 34.4883 471.332 37.8433 469.315 40.74C467.298 43.6 464.915 46.02 462.165 48C459.452 50.0167 456.445 51.6483 453.145 52.895C452.778 52.0883 452.247 51.1717 451.55 50.145C450.853 49.155 450.193 48.3483 449.57 47.725C451.697 47.065 453.713 46.185 455.62 45.085C457.563 43.985 459.323 42.6833 460.9 41.18C462.477 39.6767 463.833 38.0083 464.97 36.175C466.143 34.3417 467.023 32.38 467.61 30.29V29.3ZM425.865 44.37C427.735 44.26 429.825 44.1317 432.135 43.985C434.445 43.8017 436.883 43.6183 439.45 43.435C442.017 43.215 444.602 42.995 447.205 42.775V48.165C443.502 48.495 439.817 48.825 436.15 49.155C432.52 49.5217 429.257 49.8333 426.36 50.09L425.865 44.37ZM443.96 23.745H450.23V52.95H443.96V23.745ZM430.705 23.855H436.7V46.35H430.705V23.855ZM487.355 5.815H535.645V11.48H487.355V5.815ZM507.76 1.195H514.525V8.62H507.76V1.195ZM489.5 28.035H529.76V33.48H495.935V52.95H489.5V28.035ZM527.285 28.035H533.885V45.965C533.885 47.4683 533.702 48.6783 533.335 49.595C532.968 50.5483 532.253 51.2817 531.19 51.795C530.127 52.2717 528.862 52.565 527.395 52.675C525.928 52.785 524.187 52.84 522.17 52.84C522.06 51.9233 521.803 50.86 521.4 49.65C520.997 48.4767 520.575 47.4867 520.135 46.68C521.418 46.7167 522.647 46.7533 523.82 46.79C525.03 46.79 525.818 46.7717 526.185 46.735C526.625 46.6983 526.918 46.625 527.065 46.515C527.212 46.405 527.285 46.185 527.285 45.855V28.035ZM500.885 36.01H506.605V50.915H500.885V36.01ZM503.8 36.01H522.005V48.385H503.8V43.93H516.23V40.465H503.8V36.01ZM502.645 17.97V21.325H519.915V17.97H502.645ZM496.375 13.57H526.625V25.725H496.375V13.57ZM577.005 10.325C576.638 13.1117 576.162 16.0817 575.575 19.235C574.988 22.3883 574.2 25.5783 573.21 28.805C572.147 32.5083 570.9 35.6983 569.47 38.375C568.04 41.0517 566.463 43.1233 564.74 44.59C563.053 46.02 561.202 46.735 559.185 46.735C557.168 46.735 555.298 46.0567 553.575 44.7C551.888 43.3067 550.532 41.4 549.505 38.98C548.515 36.56 548.02 33.81 548.02 30.73C548.02 27.54 548.662 24.5333 549.945 21.71C551.228 18.8867 553.007 16.3933 555.28 14.23C557.59 12.03 560.267 10.3067 563.31 9.06C566.39 7.81333 569.708 7.19 573.265 7.19C576.675 7.19 579.737 7.74 582.45 8.84C585.2 9.94 587.547 11.4617 589.49 13.405C591.433 15.3483 592.918 17.6217 593.945 20.225C594.972 22.8283 595.485 25.6333 595.485 28.64C595.485 32.49 594.697 35.9367 593.12 38.98C591.543 42.0233 589.197 44.535 586.08 46.515C583 48.495 579.15 49.8517 574.53 50.585L570.405 44.04C571.468 43.93 572.403 43.8017 573.21 43.655C574.017 43.5083 574.787 43.3433 575.52 43.16C577.28 42.72 578.912 42.0967 580.415 41.29C581.955 40.4467 583.293 39.42 584.43 38.21C585.567 36.9633 586.447 35.515 587.07 33.865C587.73 32.215 588.06 30.4 588.06 28.42C588.06 26.2567 587.73 24.2767 587.07 22.48C586.41 20.6833 585.438 19.125 584.155 17.805C582.872 16.4483 581.313 15.4217 579.48 14.725C577.647 13.9917 575.538 13.625 573.155 13.625C570.222 13.625 567.637 14.1567 565.4 15.22C563.163 16.2467 561.275 17.585 559.735 19.235C558.195 20.885 557.022 22.6633 556.215 24.57C555.445 26.4767 555.06 28.2917 555.06 30.015C555.06 31.8483 555.28 33.3883 555.72 34.635C556.16 35.845 556.692 36.7617 557.315 37.385C557.975 37.9717 558.672 38.265 559.405 38.265C560.175 38.265 560.927 37.88 561.66 37.11C562.43 36.3033 563.182 35.0933 563.915 33.48C564.648 31.8667 565.382 29.8317 566.115 27.375C566.958 24.735 567.673 21.9117 568.26 18.905C568.847 15.8983 569.268 12.965 569.525 10.105L577.005 10.325ZM618.97 25.615H651.805V53.06H645.205V30.565H625.24V53.06H618.97V25.615ZM607.97 18.08H657.03V23.305H607.97V18.08ZM611.82 10.765H654.005V15.715H611.82V10.765ZM623.205 32.93H647.845V37.055H623.205V32.93ZM623.205 39.475H647.845V43.6H623.205V39.475ZM622.49 46.075H647.9V51.08H622.49V46.075ZM649.99 1.47L653.785 6.145C650.962 6.62167 647.863 7.025 644.49 7.355C641.153 7.64833 637.67 7.905 634.04 8.125C630.41 8.30833 626.762 8.43666 623.095 8.51C619.428 8.58333 615.89 8.60167 612.48 8.565C612.443 7.86833 612.297 7.04333 612.04 6.09C611.783 5.13666 611.508 4.33 611.215 3.67C614.588 3.67 618.053 3.63333 621.61 3.56C625.203 3.45 628.723 3.30333 632.17 3.12C635.617 2.93666 638.862 2.71666 641.905 2.46C644.948 2.16666 647.643 1.83667 649.99 1.47ZM626.56 6.035L633.38 7.41C632.133 11.9567 630.52 16.375 628.54 20.665C626.597 24.955 624.14 28.8967 621.17 32.49C618.2 36.0467 614.607 39.0533 610.39 41.51C610.06 40.9967 609.657 40.41 609.18 39.75C608.703 39.09 608.208 38.4483 607.695 37.825C607.182 37.2017 606.705 36.6883 606.265 36.285C610.152 34.1583 613.433 31.5 616.11 28.31C618.823 25.0833 621.023 21.545 622.71 17.695C624.397 13.845 625.68 9.95833 626.56 6.035ZM693.44 4.495H717.805V10.655H693.44V4.495ZM693.44 18.465H712.305V24.46H693.44V18.465ZM690.03 4.495H696.41V20.17C696.41 22.59 696.318 25.23 696.135 28.09C695.952 30.9133 695.585 33.81 695.035 36.78C694.485 39.75 693.678 42.6283 692.615 45.415C691.588 48.165 690.232 50.6583 688.545 52.895C688.178 52.4917 687.665 52.0333 687.005 51.52C686.382 51.0067 685.722 50.4933 685.025 49.98C684.328 49.5033 683.742 49.155 683.265 48.935C684.842 46.8817 686.07 44.645 686.95 42.225C687.867 39.805 688.545 37.3117 688.985 34.745C689.425 32.1417 689.7 29.5933 689.81 27.1C689.957 24.6067 690.03 22.2967 690.03 20.17V4.495ZM700.15 22.865C701.14 26.5683 702.497 30.0517 704.22 33.315C705.943 36.5417 708.052 39.3833 710.545 41.84C713.075 44.2967 716.027 46.2217 719.4 47.615C718.887 48.055 718.355 48.5867 717.805 49.21C717.255 49.87 716.723 50.5483 716.21 51.245C715.697 51.9417 715.275 52.5833 714.945 53.17C711.388 51.41 708.308 49.1183 705.705 46.295C703.102 43.435 700.902 40.135 699.105 36.395C697.308 32.655 695.805 28.5483 694.595 24.075L700.15 22.865ZM711.095 18.465H712.25L713.35 18.245L717.475 19.51C716.595 25.1567 715.202 30.125 713.295 34.415C711.425 38.705 709.097 42.3717 706.31 45.415C703.523 48.4583 700.315 50.97 696.685 52.95C696.428 52.4367 696.062 51.85 695.585 51.19C695.145 50.53 694.668 49.8883 694.155 49.265C693.678 48.6417 693.202 48.1467 692.725 47.78C695.878 46.3133 698.702 44.2233 701.195 41.51C703.725 38.7967 705.833 35.5883 707.52 31.885C709.207 28.145 710.398 24.0567 711.095 19.62V18.465ZM667.975 12.635H687.61V18.74H667.975V12.635ZM675.235 1.25H681.45V52.895H675.235V1.25ZM675.015 16.87L678.865 18.19C678.462 20.39 677.948 22.6633 677.325 25.01C676.702 27.3567 675.987 29.6667 675.18 31.94C674.41 34.2133 673.548 36.34 672.595 38.32C671.678 40.2633 670.707 41.95 669.68 43.38C669.35 42.4633 668.873 41.4183 668.25 40.245C667.627 39.0717 667.058 38.0817 666.545 37.275C667.498 36.065 668.397 34.6533 669.24 33.04C670.12 31.4267 670.927 29.7217 671.66 27.925C672.43 26.0917 673.09 24.24 673.64 22.37C674.19 20.4633 674.648 18.63 675.015 16.87ZM681.23 21.435C681.56 21.8017 682.073 22.4617 682.77 23.415C683.503 24.3683 684.273 25.395 685.08 26.495C685.923 27.595 686.675 28.6033 687.335 29.52C687.995 30.4367 688.453 31.0967 688.71 31.5L685.025 36.615C684.658 35.7717 684.182 34.7817 683.595 33.645C683.045 32.5083 682.44 31.3717 681.78 30.235C681.12 29.0617 680.478 27.9617 679.855 26.935C679.232 25.8717 678.718 24.9917 678.315 24.295L681.23 21.435ZM751.41 4.55C751.227 5.24667 751.043 6.01667 750.86 6.86C750.713 7.66667 750.567 8.41833 750.42 9.115C750.273 9.92166 750.09 10.8383 749.87 11.865C749.65 12.855 749.43 13.8633 749.21 14.89C749.027 15.88 748.825 16.8517 748.605 17.805C748.238 19.3817 747.78 21.215 747.23 23.305C746.68 25.395 746.038 27.65 745.305 30.07C744.572 32.4533 743.747 34.855 742.83 37.275C741.913 39.695 740.942 42.06 739.915 44.37C738.888 46.6433 737.788 48.6967 736.615 50.53L729.465 47.67C730.748 45.9467 731.94 44.0217 733.04 41.895C734.177 39.7317 735.203 37.5133 736.12 35.24C737.037 32.9667 737.843 30.73 738.54 28.53C739.273 26.33 739.897 24.2767 740.41 22.37C740.923 20.4633 741.327 18.8317 741.62 17.475C742.133 14.9817 742.537 12.58 742.83 10.27C743.123 7.96 743.252 5.77833 743.215 3.725L751.41 4.55ZM770.33 9.72C771.21 10.8933 772.108 12.3783 773.025 14.175C773.978 15.935 774.895 17.805 775.775 19.785C776.692 21.765 777.517 23.6717 778.25 25.505C779.02 27.3383 779.607 28.8967 780.01 30.18L773.025 33.425C772.658 31.885 772.145 30.18 771.485 28.31C770.862 26.4033 770.128 24.4783 769.285 22.535C768.478 20.555 767.598 18.685 766.645 16.925C765.728 15.165 764.775 13.6983 763.785 12.525L770.33 9.72ZM729.08 15.825C730.07 15.8983 731.042 15.935 731.995 15.935C732.948 15.8983 733.938 15.8617 734.965 15.825C735.845 15.7883 736.927 15.7333 738.21 15.66C739.53 15.55 740.905 15.44 742.335 15.33C743.802 15.22 745.268 15.11 746.735 15C748.202 14.8533 749.558 14.7433 750.805 14.67C752.052 14.5967 753.078 14.56 753.885 14.56C755.828 14.56 757.533 14.89 759 15.55C760.503 16.1733 761.677 17.255 762.52 18.795C763.4 20.335 763.84 22.425 763.84 25.065C763.84 27.2283 763.73 29.575 763.51 32.105C763.327 34.635 763.015 37.055 762.575 39.365C762.135 41.675 761.512 43.6367 760.705 45.25C759.825 47.1567 758.615 48.4767 757.075 49.21C755.572 49.9433 753.775 50.31 751.685 50.31C750.622 50.31 749.485 50.2183 748.275 50.035C747.102 49.8883 746.038 49.7233 745.085 49.54L743.875 42.28C744.608 42.4633 745.397 42.6467 746.24 42.83C747.12 43.0133 747.945 43.16 748.715 43.27C749.522 43.38 750.163 43.435 750.64 43.435C751.557 43.435 752.363 43.27 753.06 42.94C753.757 42.5733 754.325 41.95 754.765 41.07C755.278 40.0067 755.682 38.6317 755.975 36.945C756.305 35.2583 756.543 33.4433 756.69 31.5C756.873 29.52 756.965 27.6317 756.965 25.835C756.965 24.3683 756.763 23.2867 756.36 22.59C755.957 21.8933 755.352 21.435 754.545 21.215C753.775 20.9583 752.803 20.83 751.63 20.83C750.823 20.83 749.687 20.9033 748.22 21.05C746.79 21.16 745.268 21.3067 743.655 21.49C742.042 21.6367 740.52 21.8017 739.09 21.985C737.697 22.1683 736.615 22.2967 735.845 22.37C735.075 22.5167 734.067 22.6817 732.82 22.865C731.61 23.0117 730.583 23.1583 729.74 23.305L729.08 15.825ZM804.87 3.725C806.19 4.12833 807.84 4.55 809.82 4.99C811.8 5.43 813.872 5.87 816.035 6.31C818.198 6.71333 820.233 7.06166 822.14 7.355C824.083 7.64833 825.66 7.86833 826.87 8.015L825.22 14.725C824.12 14.5783 822.782 14.3767 821.205 14.12C819.665 13.8267 818.015 13.515 816.255 13.185C814.532 12.855 812.827 12.525 811.14 12.195C809.453 11.8283 807.913 11.48 806.52 11.15C805.127 10.82 803.99 10.545 803.11 10.325L804.87 3.725ZM805.2 14.78C805.017 15.5133 804.815 16.4667 804.595 17.64C804.412 18.7767 804.228 19.9683 804.045 21.215C803.862 22.4617 803.678 23.6533 803.495 24.79C803.348 25.9267 803.22 26.88 803.11 27.65C805.603 25.8533 808.207 24.5333 810.92 23.69C813.67 22.8467 816.475 22.425 819.335 22.425C822.562 22.425 825.312 23.0117 827.585 24.185C829.858 25.3583 831.582 26.8983 832.755 28.805C833.965 30.7117 834.57 32.7833 834.57 35.02C834.57 37.5133 834.038 39.8233 832.975 41.95C831.912 44.0767 830.17 45.8917 827.75 47.395C825.33 48.8983 822.158 49.9617 818.235 50.585C814.312 51.2083 809.49 51.2817 803.77 50.805L801.68 43.6C807.18 44.3333 811.8 44.4433 815.54 43.93C819.28 43.38 822.103 42.3167 824.01 40.74C825.953 39.1267 826.925 37.165 826.925 34.855C826.925 33.645 826.577 32.5817 825.88 31.665C825.183 30.7117 824.212 29.9783 822.965 29.465C821.718 28.915 820.307 28.64 818.73 28.64C815.65 28.64 812.753 29.2083 810.04 30.345C807.363 31.445 805.163 33.04 803.44 35.13C802.963 35.7167 802.56 36.2667 802.23 36.78C801.937 37.2567 801.662 37.77 801.405 38.32L795.08 36.725C795.3 35.6617 795.52 34.415 795.74 32.985C795.96 31.5183 796.18 29.96 796.4 28.31C796.62 26.6233 796.822 24.9367 797.005 23.25C797.188 21.5633 797.353 19.895 797.5 18.245C797.647 16.595 797.757 15.0917 797.83 13.735L805.2 14.78Z" fill="white"/>
</svg>
